<svg xmlns="http://www.w3.org/2000/svg" viewBox="0 0 1600 1000" width="1600" height="1000" role="img" aria-label="课语通：基于大语言模型的课程问答助手示意，含知识索引、带引用出处的回答与知识点小测">
  <rect width="1600" height="1000" fill="#f7f5f0"/>
  <rect x="60" y="740" width="300" height="180" fill="#efece4"/>
  <rect x="1480" y="40" width="56" height="56" fill="none" stroke="#d43a1f" stroke-width="2"/>

  <!-- 课程资料 -->
  <rect x="130" y="150" width="430" height="700" rx="10" fill="#fdfcf9" stroke="#dcd8ce" stroke-width="2"/>
  <rect x="130" y="150" width="12" height="700" rx="6" fill="#d43a1f"/>
  <text x="176" y="212" font-family="'PingFang SC','Microsoft YaHei',sans-serif" font-size="30" font-weight="700" fill="#17150f">课程资料.pdf</text>
  <text x="176" y="250" font-family="'PingFang SC','Microsoft YaHei',sans-serif" font-size="20" fill="#8d8880">已建立知识索引 · 42 个片段</text>
  <line x1="176" y1="276" x2="514" y2="276" stroke="#dcd8ce" stroke-width="2"/>
  <text x="176" y="320" font-family="'PingFang SC','Microsoft YaHei',sans-serif" font-size="21" fill="#55504a">第 3 章 · 机器学习基础</text>
  <text x="176" y="358" font-family="'PingFang SC','Microsoft YaHei',sans-serif" font-size="21" fill="#55504a">3.2 过拟合与正则化</text>
  <text x="176" y="396" font-family="'PingFang SC','Microsoft YaHei',sans-serif" font-size="21" fill="#55504a">3.3 交叉验证</text>
  <text x="176" y="434" font-family="'PingFang SC','Microsoft YaHei',sans-serif" font-size="21" fill="#55504a">3.4 模型评估指标</text>
  <text x="176" y="500" font-family="'PingFang SC','Microsoft YaHei',sans-serif" font-size="20" fill="#8d8880">知识索引</text>
  <rect x="176" y="520" width="338" height="56" rx="8" fill="#efece4"/>
  <circle cx="200" cy="548" r="6" fill="#d43a1f"/>
  <text x="220" y="556" font-family="'PingFang SC','Microsoft YaHei',sans-serif" font-size="20" fill="#55504a">向量化片段 #01</text>
  <rect x="176" y="590" width="338" height="56" rx="8" fill="#efece4"/>
  <circle cx="200" cy="618" r="6" fill="#d43a1f"/>
  <text x="220" y="626" font-family="'PingFang SC','Microsoft YaHei',sans-serif" font-size="20" fill="#55504a">向量化片段 #02</text>
  <rect x="176" y="660" width="338" height="56" rx="8" fill="#efece4"/>
  <circle cx="200" cy="688" r="6" fill="#d43a1f"/>
  <text x="220" y="696" font-family="'PingFang SC','Microsoft YaHei',sans-serif" font-size="20" fill="#55504a">向量化片段 #03</text>
  <text x="176" y="772" font-family="'PingFang SC','Microsoft YaHei',sans-serif" font-size="20" fill="#8d8880">支持课程资料上传与检索</text>

  <!-- 问答面板 -->
  <rect x="640" y="180" width="800" height="640" rx="14" fill="#efece4"/>
  <rect x="700" y="230" width="560" height="80" rx="14" fill="#17150f"/>
  <text x="730" y="280" font-family="'PingFang SC','Microsoft YaHei',sans-serif" font-size="26" fill="#f7f5f0">老师，什么是过拟合？</text>
  <rect x="700" y="340" width="680" height="310" rx="14" fill="#fdfcf9"/>
  <text x="730" y="386" font-family="'PingFang SC','Microsoft YaHei',sans-serif" font-size="24" font-weight="700" fill="#17150f">根据课程第 3 章内容：</text>
  <text x="730" y="428" font-family="'PingFang SC','Microsoft YaHei',sans-serif" font-size="22" fill="#55504a">模型在训练集上表现很好，但在新数据上</text>
  <text x="730" y="462" font-family="'PingFang SC','Microsoft YaHei',sans-serif" font-size="22" fill="#55504a">误差明显变大，这就是过拟合。</text>
  <line x1="730" y1="490" x2="1350" y2="490" stroke="#dcd8ce" stroke-width="2"/>
  <text x="730" y="526" font-family="'PingFang SC','Microsoft YaHei',sans-serif" font-size="20" fill="#8d8880">引用出处</text>
  <rect x="730" y="546" width="74" height="40" rx="8" fill="#d43a1f"/>
  <text x="754" y="574" font-family="'PingFang SC','Microsoft YaHei',sans-serif" font-size="21" fill="#f7f5f0">[1]</text>
  <rect x="816" y="546" width="74" height="40" rx="8" fill="#d43a1f"/>
  <text x="840" y="574" font-family="'PingFang SC','Microsoft YaHei',sans-serif" font-size="21" fill="#f7f5f0">[2]</text>
  <text x="910" y="574" font-family="'PingFang SC','Microsoft YaHei',sans-serif" font-size="20" fill="#55504a">3.2 过拟合与正则化</text>
  <rect x="700" y="676" width="680" height="104" rx="12" fill="#fdfcf9" stroke="#dcd8ce" stroke-width="2"/>
  <text x="730" y="720" font-family="'PingFang SC','Microsoft YaHei',sans-serif" font-size="24" fill="#17150f">知识点小测 · 共 3 题</text>
  <text x="730" y="754" font-family="'PingFang SC','Microsoft YaHei',sans-serif" font-size="20" fill="#8d8880">检验本节掌握程度</text>
  <rect x="1180" y="700" width="170" height="56" rx="28" fill="#d43a1f"/>
  <text x="1214" y="736" font-family="'PingFang SC','Microsoft YaHei',sans-serif" font-size="22" fill="#f7f5f0">开始小测</text>

  <line x1="120" y1="900" x2="1480" y2="900" stroke="#dcd8ce" stroke-width="2"/>
  <text x="120" y="950" font-family="'PingFang SC','Microsoft YaHei',sans-serif" font-size="26" fill="#8d8880" letter-spacing="2">Python · FastAPI · RAG · 向量检索 · 大语言模型 API · Streamlit</text>
</svg>